<svg height="2286" width="720" xmlns="http://www.w3.org/2000/svg">
<rect height="2286" fill="#555" width="720"></rect>
<text fill="#7f7" font-family="Courier New" font-size="12" xml:space="preserve">
<tspan x="10" y="26">18 megabytes installed</tspan>
<tspan x="10" y="42"></tspan>
<tspan x="10" y="58">node_modules</tspan>
<tspan x="10" y="74">├── UNMET PEER DEPENDENCY grunt@~0.4.2</tspan>
<tspan x="10" y="90">└─┬ grunt-node-webkit-builder@1.0.2 </tspan>
<tspan x="10" y="106">  └─┬ node-webkit-builder@1.0.13 </tspan>
<tspan x="10" y="122">    ├─┬ archiver@0.13.1 </tspan>
<tspan x="10" y="138">    │ ├── async@0.9.2 </tspan>
<tspan x="10" y="154">    │ ├── buffer-crc32@0.2.13 </tspan>
<tspan x="10" y="170">    │ ├─┬ glob@4.3.5 </tspan>
<tspan x="10" y="186">    │ │ ├─┬ inflight@1.0.6 </tspan>
<tspan x="10" y="202">    │ │ │ └── wrappy@1.0.2 </tspan>
<tspan x="10" y="218">    │ │ ├─┬ minimatch@2.0.10 </tspan>
<tspan x="10" y="234">    │ │ │ └─┬ brace-expansion@1.1.7 </tspan>
<tspan x="10" y="250">    │ │ │   ├── balanced-match@0.4.2 </tspan>
<tspan x="10" y="266">    │ │ │   └── concat-map@0.0.1 </tspan>
<tspan x="10" y="282">    │ │ └── once@1.4.0 </tspan>
<tspan x="10" y="298">    │ ├── lazystream@0.1.0 </tspan>
<tspan x="10" y="314">    │ ├─┬ readable-stream@1.0.34 </tspan>
<tspan x="10" y="330">    │ │ ├── core-util-is@1.0.2 </tspan>
<tspan x="10" y="346">    │ │ ├── isarray@0.0.1 </tspan>
<tspan x="10" y="362">    │ │ └── string_decoder@0.10.31 </tspan>
<tspan x="10" y="378">    │ ├─┬ tar-stream@1.1.5 </tspan>
<tspan x="10" y="394">    │ │ ├── bl@0.9.5 </tspan>
<tspan x="10" y="410">    │ │ ├── end-of-stream@1.4.0 </tspan>
<tspan x="10" y="426">    │ │ └── xtend@4.0.1 </tspan>
<tspan x="10" y="442">    │ └─┬ zip-stream@0.5.2 </tspan>
<tspan x="10" y="458">    │   ├─┬ compress-commons@0.2.9 </tspan>
<tspan x="10" y="474">    │   │ ├── crc32-stream@0.3.4 </tspan>
<tspan x="10" y="490">    │   │ └── node-int64@0.3.3 </tspan>
<tspan x="10" y="506">    │   └── lodash@3.2.0 </tspan>
<tspan x="10" y="522">    ├── bluebird@1.2.4 </tspan>
<tspan x="10" y="538">    ├─┬ decompress-zip@0.0.8 </tspan>
<tspan x="10" y="554">    │ ├─┬ binary@0.3.0 </tspan>
<tspan x="10" y="570">    │ │ ├── buffers@0.1.1 </tspan>
<tspan x="10" y="586">    │ │ └─┬ chainsaw@0.1.0 </tspan>
<tspan x="10" y="602">    │ │   └── traverse@0.3.9 </tspan>
<tspan x="10" y="618">    │ ├─┬ graceful-fs@3.0.11 </tspan>
<tspan x="10" y="634">    │ │ └── natives@1.1.0 </tspan>
<tspan x="10" y="650">    │ ├── mkpath@0.1.0 </tspan>
<tspan x="10" y="666">    │ ├─┬ nopt@2.2.1 </tspan>
<tspan x="10" y="682">    │ │ └── abbrev@1.1.0 </tspan>
<tspan x="10" y="698">    │ ├── q@1.0.1 </tspan>
<tspan x="10" y="714">    │ ├── readable-stream@1.1.14 </tspan>
<tspan x="10" y="730">    │ └─┬ touch@0.0.2 </tspan>
<tspan x="10" y="746">    │   └── nopt@1.0.10 </tspan>
<tspan x="10" y="762">    ├─┬ graceful-fs-extra@1.1.0 </tspan>
<tspan x="10" y="778">    │ ├─┬ fs-extra@0.30.0 </tspan>
<tspan x="10" y="794">    │ │ ├── graceful-fs@4.1.11 </tspan>
<tspan x="10" y="810">    │ │ ├─┬ jsonfile@2.4.0 </tspan>
<tspan x="10" y="826">    │ │ │ └── graceful-fs@4.1.11 </tspan>
<tspan x="10" y="842">    │ │ ├─┬ klaw@1.3.1 </tspan>
<tspan x="10" y="858">    │ │ │ └── graceful-fs@4.1.11 </tspan>
<tspan x="10" y="874">    │ │ └── path-is-absolute@1.0.1 </tspan>
<tspan x="10" y="890">    │ └─┬ proxyquire@1.7.11 </tspan>
<tspan x="10" y="906">    │   ├─┬ fill-keys@1.0.2 </tspan>
<tspan x="10" y="922">    │   │ ├── is-object@1.0.1 </tspan>
<tspan x="10" y="938">    │   │ └── merge-descriptors@1.0.1 </tspan>
<tspan x="10" y="954">    │   ├── module-not-found-error@1.0.1 </tspan>
<tspan x="10" y="970">    │   └── resolve@1.1.7 </tspan>
<tspan x="10" y="986">    ├─┬ graceful-ncp@2.0.0 </tspan>
<tspan x="10" y="1002">    │ └── ncp@2.0.0 </tspan>
<tspan x="10" y="1018">    ├── inherits@2.0.3 </tspan>
<tspan x="10" y="1034">    ├── lodash@2.4.2 </tspan>
<tspan x="10" y="1050">    ├─┬ optimist@0.6.1 </tspan>
<tspan x="10" y="1066">    │ ├── minimist@0.0.10 </tspan>
<tspan x="10" y="1082">    │ └── wordwrap@0.0.3 </tspan>
<tspan x="10" y="1098">    ├── platform-overrides@1.0.1 </tspan>
<tspan x="10" y="1114">    ├─┬ plist@1.2.0 </tspan>
<tspan x="10" y="1130">    │ ├── base64-js@0.0.8 </tspan>
<tspan x="10" y="1146">    │ ├── util-deprecate@1.0.2 </tspan>
<tspan x="10" y="1162">    │ ├─┬ xmlbuilder@4.0.0 </tspan>
<tspan x="10" y="1178">    │ │ └── lodash@3.10.1 </tspan>
<tspan x="10" y="1194">    │ └── xmldom@0.1.27 </tspan>
<tspan x="10" y="1210">    ├── progress@1.1.8 </tspan>
<tspan x="10" y="1226">    ├── rcedit@0.2.0 </tspan>
<tspan x="10" y="1242">    ├─┬ request@2.40.0 </tspan>
<tspan x="10" y="1258">    │ ├── aws-sign2@0.5.0 </tspan>
<tspan x="10" y="1274">    │ ├── forever-agent@0.5.2 </tspan>
<tspan x="10" y="1290">    │ ├─┬ form-data@0.1.4 </tspan>
<tspan x="10" y="1306">    │ │ ├─┬ combined-stream@0.0.7 </tspan>
<tspan x="10" y="1322">    │ │ │ └── delayed-stream@0.0.5 </tspan>
<tspan x="10" y="1338">    │ │ └── mime@1.2.11 </tspan>
<tspan x="10" y="1354">    │ ├─┬ hawk@1.1.1 </tspan>
<tspan x="10" y="1370">    │ │ ├── boom@0.4.2 </tspan>
<tspan x="10" y="1386">    │ │ ├── cryptiles@0.2.2 </tspan>
<tspan x="10" y="1402">    │ │ ├── hoek@0.9.1 </tspan>
<tspan x="10" y="1418">    │ │ └── sntp@0.2.4 </tspan>
<tspan x="10" y="1434">    │ ├─┬ http-signature@0.10.1 </tspan>
<tspan x="10" y="1450">    │ │ ├── asn1@0.1.11 </tspan>
<tspan x="10" y="1466">    │ │ ├── assert-plus@0.1.5 </tspan>
<tspan x="10" y="1482">    │ │ └── ctype@0.5.3 </tspan>
<tspan x="10" y="1498">    │ ├── json-stringify-safe@5.0.1 </tspan>
<tspan x="10" y="1514">    │ ├── mime-types@1.0.2 </tspan>
<tspan x="10" y="1530">    │ ├── node-uuid@1.4.8 </tspan>
<tspan x="10" y="1546">    │ ├── oauth-sign@0.3.0 </tspan>
<tspan x="10" y="1562">    │ ├── qs@1.0.2 </tspan>
<tspan x="10" y="1578">    │ ├── stringstream@0.0.5 </tspan>
<tspan x="10" y="1594">    │ ├─┬ tough-cookie@2.3.2 </tspan>
<tspan x="10" y="1610">    │ │ └── punycode@1.4.1 </tspan>
<tspan x="10" y="1626">    │ └── tunnel-agent@0.4.3 </tspan>
<tspan x="10" y="1642">    ├─┬ rimraf@2.6.1 </tspan>
<tspan x="10" y="1658">    │ └─┬ glob@7.1.1 </tspan>
<tspan x="10" y="1674">    │   ├── fs.realpath@1.0.0 </tspan>
<tspan x="10" y="1690">    │   └── minimatch@3.0.3 </tspan>
<tspan x="10" y="1706">    ├── semver@2.3.2 </tspan>
<tspan x="10" y="1722">    ├─┬ simple-glob@0.1.0 </tspan>
<tspan x="10" y="1738">    │ ├─┬ glob@3.2.11 </tspan>
<tspan x="10" y="1754">    │ │ └── minimatch@0.3.0 </tspan>
<tspan x="10" y="1770">    │ └─┬ minimatch@0.2.14 </tspan>
<tspan x="10" y="1786">    │   ├── lru-cache@2.7.3 </tspan>
<tspan x="10" y="1802">    │   └── sigmund@1.0.1 </tspan>
<tspan x="10" y="1818">    ├─┬ tar-fs@0.3.3 </tspan>
<tspan x="10" y="1834">    │ ├── mkdirp@0.3.5 </tspan>
<tspan x="10" y="1850">    │ ├─┬ pump@0.3.5 </tspan>
<tspan x="10" y="1866">    │ │ ├─┬ end-of-stream@1.0.0 </tspan>
<tspan x="10" y="1882">    │ │ │ └── once@1.3.3 </tspan>
<tspan x="10" y="1898">    │ │ └── once@1.2.0 </tspan>
<tspan x="10" y="1914">    │ └── tar-stream@0.4.7 </tspan>
<tspan x="10" y="1930">    ├─┬ temp@0.7.0 </tspan>
<tspan x="10" y="1946">    │ └── rimraf@2.2.8 </tspan>
<tspan x="10" y="1962">    ├─┬ update-notifier@0.1.10 </tspan>
<tspan x="10" y="1978">    │ ├─┬ chalk@0.4.0 </tspan>
<tspan x="10" y="1994">    │ │ ├── ansi-styles@1.0.0 </tspan>
<tspan x="10" y="2010">    │ │ ├── has-color@0.1.7 </tspan>
<tspan x="10" y="2026">    │ │ └── strip-ansi@0.1.1 </tspan>
<tspan x="10" y="2042">    │ └─┬ configstore@0.3.2 </tspan>
<tspan x="10" y="2058">    │   ├─┬ js-yaml@3.8.3 </tspan>
<tspan x="10" y="2074">    │   │ ├─┬ argparse@1.0.9 </tspan>
<tspan x="10" y="2090">    │   │ │ └── sprintf-js@1.0.3 </tspan>
<tspan x="10" y="2106">    │   │ └── esprima@3.1.3 </tspan>
<tspan x="10" y="2122">    │   ├─┬ mkdirp@0.5.1 </tspan>
<tspan x="10" y="2138">    │   │ └── minimist@0.0.8 </tspan>
<tspan x="10" y="2154">    │   ├── object-assign@2.1.1 </tspan>
<tspan x="10" y="2170">    │   ├─┬ osenv@0.1.4 </tspan>
<tspan x="10" y="2186">    │   │ ├── os-homedir@1.0.2 </tspan>
<tspan x="10" y="2202">    │   │ └── os-tmpdir@1.0.2 </tspan>
<tspan x="10" y="2218">    │   ├── user-home@1.1.1 </tspan>
<tspan x="10" y="2234">    │   ├── uuid@2.0.3 </tspan>
<tspan x="10" y="2250">    │   └── xdg-basedir@1.0.1 </tspan>
<tspan x="10" y="2266">    └── winresourcer@0.9.0</tspan>
</text>
</svg>
